<svg id="Layer_1" data-name="Layer 1" xmlns="http://www.w3.org/2000/svg" viewBox="0 0 75 75"><defs><style>.cls-1{fill:#414042;}</style></defs><title>linkedin</title><path class="cls-1" d="M25.75,22.16a3.64,3.64,0,1,0,3.64,3.64A3.64,3.64,0,0,0,25.75,22.16Z"/><rect class="cls-1" x="22.61" y="32.2" width="6.28" height="20.2"/><path class="cls-1" d="M44.88,31.7A6.59,6.59,0,0,0,38.94,35h-.09V32.2h-6V52.41H39.1v-10c0-2.63.5-5.18,3.77-5.18s3.26,3,3.26,5.35v9.83H52.4V41.33C52.4,35.88,51.23,31.7,44.88,31.7Z"/><path class="cls-1" d="M37.5,0A37.5,37.5,0,1,0,75,37.5,37.5,37.5,0,0,0,37.5,0ZM58.67,55.61a3.1,3.1,0,0,1-3.14,3.06H19.46a3.09,3.09,0,0,1-3.13-3.06V19.38a3.09,3.09,0,0,1,3.13-3.05H55.53a3.1,3.1,0,0,1,3.14,3.05Z"/></svg>