<svg id="Layer_1" data-name="Layer 1" xmlns="http://www.w3.org/2000/svg" viewBox="0 0 75 75"><defs><style>.cls-1{fill:#414042;}</style></defs><title>github</title><path class="cls-1" d="M37.5,0A37.5,37.5,0,1,0,75,37.5,37.5,37.5,0,0,0,37.5,0ZM45,60.62c-1.2.23-1.63-.5-1.63-1.14s0-3.34,0-6.52a5.66,5.66,0,0,0-1.61-4.39C47.1,48,52.65,46,52.65,36.84a9.17,9.17,0,0,0-2.44-6.37A8.55,8.55,0,0,0,50,24.18s-2-.63-6.52,2.44a22.53,22.53,0,0,0-11.9,0C27,23.55,25,24.18,25,24.18a8.58,8.58,0,0,0-.23,6.29,9.17,9.17,0,0,0-2.44,6.37C22.35,46,27.89,48,33.16,48.58a5.1,5.1,0,0,0-1.5,3.18c-1.36.61-4.8,1.66-6.92-2a5,5,0,0,0-3.63-2.45s-2.32,0-.17,1.44c0,0,1.56.73,2.64,3.48,0,0,1.39,4.62,8,3.18,0,2,0,3.48,0,4s-.43,1.36-1.62,1.15a23.76,23.76,0,1,1,15,0Z"/></svg>