<svg xmlns="http://www.w3.org/2000/svg" viewBox="0 0 570.62 219.56"><defs><style>.cls-1{fill:#fff;}</style></defs><title>HuskyGameDevelopment_Side_Bl</title><g id="Layer_2" data-name="Layer 2"><g id="Final-Husky_Game_Development" data-name="Final-Husky Game Development"><g id="black_copy" data-name="black copy"><g id="bl-side"><g id="text"><path class="cls-1" d="M244.27,72.15H228.41V96.72H218V38.62h10.46v23.9h15.85V38.62h10.46v58.1H244.27Z"/><path class="cls-1" d="M271.57,55.22V80q0,4.9.91,6.81a3.35,3.35,0,0,0,3.32,1.91,5.11,5.11,0,0,0,3.9-1.7,9.75,9.75,0,0,0,2.24-4.11V55.22h9.88V84.11q0,3.4.25,6.68a35.6,35.6,0,0,0,.91,5.93h-7.47l-1.74-5.64h-.25a14,14,0,0,1-4.27,4.81,11.28,11.28,0,0,1-6.68,1.91,13.67,13.67,0,0,1-4.57-.71,7.57,7.57,0,0,1-3.4-2.45,12.12,12.12,0,0,1-2.16-4.77,32.82,32.82,0,0,1-.75-7.68v-27Z"/><path class="cls-1" d="M313,85.68a4.16,4.16,0,0,0-1.12-2.95A12.92,12.92,0,0,0,309,80.49q-1.74-1-3.69-2.12a19.7,19.7,0,0,1-3.69-2.66,12.8,12.8,0,0,1-2.86-3.82,12.58,12.58,0,0,1-1.12-5.64q0-5.81,3.15-9t9.3-3.15a29.05,29.05,0,0,1,6.89.79,18.43,18.43,0,0,1,5.15,2l-2.32,7.64A32.28,32.28,0,0,0,316,63.23a16.41,16.41,0,0,0-4.4-.62q-4.07,0-4.07,3.4a3.41,3.41,0,0,0,1.12,2.61,15.56,15.56,0,0,0,2.86,2q1.74,1,3.69,2.08a18.81,18.81,0,0,1,3.69,2.7,12.4,12.4,0,0,1,4,9.67,12.45,12.45,0,0,1-3.49,9.21Q315.9,97.8,309,97.8a27.15,27.15,0,0,1-6.68-.83,17,17,0,0,1-5.27-2.16l2.74-8a21.71,21.71,0,0,0,4,1.74,15.26,15.26,0,0,0,4.77.75,5.38,5.38,0,0,0,3.15-.87A3.16,3.16,0,0,0,313,85.68Z"/><path class="cls-1" d="M340.3,79.54H338V96.72H328.1V38.62H338V72.9l2-1.16,6.89-16.52h10.71l-7.64,16.43-3.57,2.82,3.9,2.82,8.47,19.42H347.6Z"/><path class="cls-1" d="M377,78.54,378.06,85h.41l.75-6.56L384,55.22h10.13L383.79,92.65q-1.41,4.9-2.66,8.8a43.58,43.58,0,0,1-2.66,6.64,13,13,0,0,1-3.2,4.19,6.56,6.56,0,0,1-4.27,1.45,19.17,19.17,0,0,1-3.36-.29,8.71,8.71,0,0,1-2.78-.95l1.66-8.39a5.52,5.52,0,0,0,2.2.37,3.39,3.39,0,0,0,2.08-.84,6.77,6.77,0,0,0,1.7-2.47,19.86,19.86,0,0,0,1.25-4.45L359.3,55.22h11.87Z"/><path class="cls-1" d="M428.19,66.68h17.93V92.41a18.22,18.22,0,0,1-7.18,4.19,27.25,27.25,0,0,1-8.18,1.29,21.93,21.93,0,0,1-8.88-1.74,16.84,16.84,0,0,1-6.76-5.44,27.25,27.25,0,0,1-4.32-9.38,52.88,52.88,0,0,1-1.54-13.65,46.64,46.64,0,0,1,1.83-14,27.22,27.22,0,0,1,4.86-9.34A17.84,17.84,0,0,1,423,39.08a22.58,22.58,0,0,1,8.51-1.62,34.66,34.66,0,0,1,7.26.71,30.92,30.92,0,0,1,5.44,1.62l-2.16,9a20.44,20.44,0,0,0-3.86-1.25,24.67,24.67,0,0,0-5.35-.5,11.8,11.8,0,0,0-5.27,1.16,10,10,0,0,0-4,3.65,19.52,19.52,0,0,0-2.49,6.43,44.21,44.21,0,0,0-.87,9.42q0,10.54,3.2,15.52t8.42,5a10.2,10.2,0,0,0,3.2-.5,7.15,7.15,0,0,0,2.7-1.6v-12l-9.54-1.3Z"/><path class="cls-1" d="M452.18,57.71a22.51,22.51,0,0,1,6.23-2.41,35.78,35.78,0,0,1,8.47-.91q7.05,0,9.84,3.65t2.78,10.38q0,3.9-.21,7.68T479,83.48q-.08,3.61.12,7a27.38,27.38,0,0,0,1.12,6.35h-8.05l-1.58-5.06h-.33a11.16,11.16,0,0,1-3.74,4,10.85,10.85,0,0,1-6.06,1.58A9.65,9.65,0,0,1,452.76,94a13,13,0,0,1-2.82-8.76q0-7.47,5.31-10.62T469.61,72q.41-4.81-.62-7t-4.44-2.16a24.11,24.11,0,0,0-5.15.58,19.1,19.1,0,0,0-4.73,1.66ZM464,88.84a5.7,5.7,0,0,0,3.65-1.12,7.39,7.39,0,0,0,2.08-2.45V78.38a16.29,16.29,0,0,0-3.65-.08,10.05,10.05,0,0,0-3.07.75,5,5,0,0,0-2.12,1.7,4.86,4.86,0,0,0-.79,2.86,6.24,6.24,0,0,0,1,3.9A3.43,3.43,0,0,0,464,88.84Z"/><path class="cls-1" d="M505.55,96.72V72.57q0-5.23-.83-7.26a3.17,3.17,0,0,0-3.24-2,4.44,4.44,0,0,0-3.28,1.29,8.39,8.39,0,0,0-2,3.11v29h-9.88V55.22H494l1.25,5h.25a14.58,14.58,0,0,1,3.94-4.27,10.51,10.51,0,0,1,6.27-1.7A9.06,9.06,0,0,1,511,55.64a9.36,9.36,0,0,1,3.2,5,12.44,12.44,0,0,1,4.15-4.69,10.74,10.74,0,0,1,6.06-1.7,13.86,13.86,0,0,1,4.69.71,6.41,6.41,0,0,1,3.15,2.45A12.59,12.59,0,0,1,534,62.15a42,42,0,0,1,.58,7.68V96.72h-9.88V71.49a19.05,19.05,0,0,0-.75-6.23,3.15,3.15,0,0,0-3.32-2,4.73,4.73,0,0,0-3.36,1.2,6.91,6.91,0,0,0-1.87,3.28v29Z"/><path class="cls-1" d="M569.46,93.65a15.92,15.92,0,0,1-5.64,3,24,24,0,0,1-7.47,1.16,17,17,0,0,1-7.43-1.49,13.07,13.07,0,0,1-5.1-4.32,19.56,19.56,0,0,1-2.95-6.85,39.89,39.89,0,0,1-1-9.17q0-11.21,4.44-16.56t12.33-5.35a17,17,0,0,1,5.15.79,11.29,11.29,0,0,1,4.44,2.66,13.53,13.53,0,0,1,3.15,5,22,22,0,0,1,1.2,7.84q0,1.83-.21,3.9t-.62,4.48H549.62q.16,5.15,2.16,7.89t6.39,2.74A13.65,13.65,0,0,0,563,88.5a12.89,12.89,0,0,0,3.36-1.74ZM556.51,62.53a5.21,5.21,0,0,0-4.73,2.53,15,15,0,0,0-1.83,7.1H561.4q.25-4.73-1-7.18A4.11,4.11,0,0,0,556.51,62.53Z"/><path class="cls-1" d="M219,122.51a24.81,24.81,0,0,1,2.66-.34q1.46-.11,3-.15l3-.08q1.46,0,2.74,0a21,21,0,0,1,9.3,1.88,16,16,0,0,1,6.23,5.36,23.23,23.23,0,0,1,3.45,8.36,55.11,55.11,0,0,1,0,21.23,25.43,25.43,0,0,1-3.41,8.7,18,18,0,0,1-6.34,6,19.65,19.65,0,0,1-9.86,2.25l-2.48,0q-1.5,0-3.11-.15l-3-.19a16.13,16.13,0,0,1-2.14-.22Zm11.63,4.58H229q-.86,0-1.69.07l-1.54.15c-.48.05-.86.1-1.16.15v42.75a6.42,6.42,0,0,0,1.09.11l1.65.08,1.65.07,1.16,0a12.43,12.43,0,0,0,6.9-1.8,12.82,12.82,0,0,0,4.39-4.84,23.13,23.13,0,0,0,2.29-7,51.28,51.28,0,0,0,.68-8.51,50.33,50.33,0,0,0-.6-7.8,22.11,22.11,0,0,0-2.14-6.79,13,13,0,0,0-4.2-4.8A11.84,11.84,0,0,0,230.65,127.08Z"/><path class="cls-1" d="M280.44,172.46a12.26,12.26,0,0,1-4.58,2.55,18.84,18.84,0,0,1-5.85.9,12.76,12.76,0,0,1-6.11-1.39,11.6,11.6,0,0,1-4.28-4,18.43,18.43,0,0,1-2.47-6.19,38,38,0,0,1-.79-8.1q0-9.6,3.53-14.62a11.47,11.47,0,0,1,10-5,16.87,16.87,0,0,1,4.16.52,8.28,8.28,0,0,1,3.71,2.1,11.18,11.18,0,0,1,2.66,4.42,22.63,22.63,0,0,1,1,7.43q0,1.28-.11,2.74t-.26,3H262a29.88,29.88,0,0,0,.53,5.85,13.59,13.59,0,0,0,1.65,4.46,8.08,8.08,0,0,0,2.89,2.85,8.7,8.7,0,0,0,4.39,1,11.28,11.28,0,0,0,4-.75,8.47,8.47,0,0,0,3-1.8Zm-4.2-20.1q.15-5.62-1.57-8.25a5.38,5.38,0,0,0-4.73-2.62,6.55,6.55,0,0,0-5.47,2.63q-2,2.63-2.4,8.25Z"/><path class="cls-1" d="M296.79,159.48l1.5,7.42h.15l1.35-7.57,6.6-21.83h5.7l-12.82,38.33h-2.62l-13.05-38.33h6.15Z"/><path class="cls-1" d="M339.24,172.46a12.26,12.26,0,0,1-4.58,2.55,18.84,18.84,0,0,1-5.85.9,12.76,12.76,0,0,1-6.11-1.39,11.6,11.6,0,0,1-4.28-4,18.43,18.43,0,0,1-2.47-6.19,38,38,0,0,1-.79-8.1q0-9.6,3.53-14.62a11.47,11.47,0,0,1,10-5,16.87,16.87,0,0,1,4.16.52,8.28,8.28,0,0,1,3.71,2.1,11.18,11.18,0,0,1,2.66,4.42,22.63,22.63,0,0,1,1,7.43q0,1.28-.11,2.74t-.26,3H320.79a29.88,29.88,0,0,0,.53,5.85,13.59,13.59,0,0,0,1.65,4.46,8.08,8.08,0,0,0,2.89,2.85,8.7,8.7,0,0,0,4.39,1,11.28,11.28,0,0,0,4-.75,8.47,8.47,0,0,0,3-1.8Zm-4.2-20.1q.15-5.62-1.57-8.25a5.38,5.38,0,0,0-4.73-2.62,6.55,6.55,0,0,0-5.47,2.63q-2,2.63-2.4,8.25Z"/><path class="cls-1" d="M353.57,166.08a7.33,7.33,0,0,0,.71,3.75,2.23,2.23,0,0,0,2,1.13,10.27,10.27,0,0,0,3.68-.83l.52,4.35a8.83,8.83,0,0,1-2.74,1,15.5,15.5,0,0,1-3.19.38,6.24,6.24,0,0,1-4.61-1.76q-1.76-1.76-1.76-6.19V122.51h5.4Z"/><path class="cls-1" d="M363.62,156.26q0-10.12,3.49-14.89a11.58,11.58,0,0,1,9.94-4.76q6.9,0,10.16,4.88t3.26,14.77q0,10.2-3.52,14.92a11.64,11.64,0,0,1-9.9,4.73q-6.9,0-10.16-4.87T363.62,156.26Zm5.63,0a39.86,39.86,0,0,0,.41,6,16.41,16.41,0,0,0,1.35,4.65,7.83,7.83,0,0,0,2.44,3A6,6,0,0,0,377,171a6.31,6.31,0,0,0,5.85-3.49q1.95-3.49,2-11.29a40.21,40.21,0,0,0-.41-6,16.52,16.52,0,0,0-1.35-4.69,7.87,7.87,0,0,0-2.44-3,6,6,0,0,0-3.6-1.09,6.32,6.32,0,0,0-5.81,3.52Q369.24,148.53,369.24,156.26Z"/><path class="cls-1" d="M397.67,137.51h3.83l.83,4h.3a9.28,9.28,0,0,1,8.7-4.95q5.92,0,8.89,4.42t3,14.48a34.22,34.22,0,0,1-1,8.51,20.59,20.59,0,0,1-2.78,6.45,12.29,12.29,0,0,1-4.39,4.05,12,12,0,0,1-5.74,1.39,17.93,17.93,0,0,1-3.45-.26,10.08,10.08,0,0,1-2.78-1.09V190h-5.4Zm5.4,31.58a8.37,8.37,0,0,0,2.36,1.42,9.55,9.55,0,0,0,3.49.52q4,0,6.3-4t2.32-11.55a36,36,0,0,0-.41-5.7,15.7,15.7,0,0,0-1.31-4.39,7.56,7.56,0,0,0-2.29-2.85,5.64,5.64,0,0,0-3.41-1q-5.48,0-7,6.67Z"/><path class="cls-1" d="M447.84,175V152.73q0-3-.19-5.14a11.11,11.11,0,0,0-.79-3.49,4.26,4.26,0,0,0-1.65-2,5.32,5.32,0,0,0-2.78-.64,5.55,5.55,0,0,0-4.31,2,11,11,0,0,0-2.44,4.54v27h-5.4v-37.5h3.83l1,4h.22a13.2,13.2,0,0,1,3.75-3.52,10.36,10.36,0,0,1,5.55-1.35,7.07,7.07,0,0,1,7.58,5.63,10.08,10.08,0,0,1,3.86-4.12,10.56,10.56,0,0,1,5.51-1.5,12.52,12.52,0,0,1,4.24.64,5.73,5.73,0,0,1,2.85,2.25,11.72,11.72,0,0,1,1.61,4.28,35.73,35.73,0,0,1,.52,6.71V175h-5.4V151.16a21.23,21.23,0,0,0-.94-7.27q-.94-2.4-4.31-2.4a6,6,0,0,0-4.54,1.76,9.86,9.86,0,0,0-2.36,4.76v27Z"/><path class="cls-1" d="M501.54,172.46A12.26,12.26,0,0,1,497,175a18.84,18.84,0,0,1-5.85.9,12.76,12.76,0,0,1-6.11-1.39,11.6,11.6,0,0,1-4.28-4,18.43,18.43,0,0,1-2.47-6.19,38,38,0,0,1-.79-8.1q0-9.6,3.53-14.62a11.47,11.47,0,0,1,10-5,16.87,16.87,0,0,1,4.16.52,8.28,8.28,0,0,1,3.71,2.1,11.18,11.18,0,0,1,2.66,4.42,22.63,22.63,0,0,1,1,7.43q0,1.28-.11,2.74t-.26,3H483.09a29.88,29.88,0,0,0,.53,5.85,13.59,13.59,0,0,0,1.65,4.46,8.08,8.08,0,0,0,2.89,2.85,8.7,8.7,0,0,0,4.39,1,11.28,11.28,0,0,0,4-.75,8.47,8.47,0,0,0,3-1.8Zm-4.2-20.1q.15-5.62-1.57-8.25a5.38,5.38,0,0,0-4.73-2.62,6.55,6.55,0,0,0-5.47,2.63q-2,2.63-2.4,8.25Z"/><path class="cls-1" d="M529.29,175V152.13q0-5.62-1.31-8.14a4.82,4.82,0,0,0-4.69-2.51,7,7,0,0,0-5,1.8,10.57,10.57,0,0,0-2.85,4.43V175h-5.4v-37.5H514l1,4h.22a12.07,12.07,0,0,1,3.86-3.45,11.32,11.32,0,0,1,5.81-1.42,12.26,12.26,0,0,1,4.24.67,6.76,6.76,0,0,1,3.08,2.29,11.32,11.32,0,0,1,1.88,4.31,30.49,30.49,0,0,1,.64,6.83V175Z"/><path class="cls-1" d="M539.27,137.51h4.58v-7.42l5.4-1.73v9.15h8.1v4.88h-8.1v22.35a10.62,10.62,0,0,0,.79,4.76,2.71,2.71,0,0,0,2.59,1.46,8.78,8.78,0,0,0,2.59-.34q1.09-.34,2.36-.86l1,4.27a17.58,17.58,0,0,1-7.8,1.8q-3.75,0-5.36-2.44t-1.61-7.91v-23.1h-4.58Z"/></g><g id="face"><path id="white-bg" class="cls-1" d="M99.67,219.56c-10.57,0-19.91-3.71-25-9.93-6.59-8-15.69-23.88-19.71-31.1a62.75,62.75,0,0,1-20.31-13.24A70.8,70.8,0,0,1,18.73,141.9c-4.72-11-7.19-23.85-7.34-38.07a85.69,85.69,0,0,1,2.45-21.94C10.18,73.48,0,48.22,0,27.82,0,15.68,2.8,7.67,8.55,3.32,15.54-2,24.06.4,27.7,1.42,35.75,3.68,47.38,9,66.45,30A121.75,121.75,0,0,1,99.67,24.5,121.76,121.76,0,0,1,132.89,30C152,9,163.58,3.68,171.6,1.43c3.67-1,12.19-3.41,19.18,1.89,5.75,4.35,8.55,12.36,8.55,24.49,0,20.4-10.18,45.66-13.84,54.07A86.14,86.14,0,0,1,188,103.83c-.16,14.23-2.64,27-7.36,38.07a70.81,70.81,0,0,1-15.92,23.39,62.74,62.74,0,0,1-20.3,13.24c-4,7.22-13.12,23.06-19.72,31.1C119.58,215.84,110.24,219.56,99.67,219.56Z"/><path id="black-head" d="M180.45,81.49l.34-.77c3.23-7.32,13.76-32.77,13.76-52.9,0-10.53-2.18-17.3-6.65-20.68-5.11-3.87-11.53-2.08-15-1.11-7.56,2.13-18.64,7.26-37.51,28.31l-1,1.17L132.87,35a116.3,116.3,0,0,0-33.2-5.73A116.3,116.3,0,0,0,66.46,35l-1.49.5-1-1.17C45.06,13.28,34,8.15,26.44,6A27.64,27.64,0,0,0,19,4.76a12.2,12.2,0,0,0-7.56,2.37C7,10.52,4.78,17.29,4.78,27.82c0,20.13,10.53,45.58,13.76,52.9l.34.77-.21.81a80.45,80.45,0,0,0-2.5,21.48c.15,13.59,2.49,25.78,7,36.25A66.07,66.07,0,0,0,38,161.85a57.41,57.41,0,0,0,19.48,12.52l.83.31.43.77c2.9,5.22,12.89,22.89,19.66,31.16,4.12,5,12.28,8.18,21.29,8.18s17.17-3.13,21.29-8.17c6.78-8.27,16.76-25.94,19.66-31.16l.43-.77.83-.31a57.4,57.4,0,0,0,19.48-12.52A66.07,66.07,0,0,0,176.2,140c4.47-10.45,6.81-22.65,7-36.24a80.85,80.85,0,0,0-2.51-21.48ZM14,27.81A46.71,46.71,0,0,1,14.49,21h0c6.73-7.79,34,21.7,36.82,24.76-15,8.79-22.38,20-25.89,27.5C21.47,63.62,14,43.47,14,27.81Zm147.22,120a53.16,53.16,0,0,1-6.34,7.33,52.48,52.48,0,0,1-20.13,11.61s-13.58,24.88-21,33.95c-2.3,2.82-7.93,4.43-14.12,4.43s-11.82-1.61-14.12-4.43c-7.43-9.07-21-33.95-21-33.95a52.48,52.48,0,0,1-20.13-11.61,53.84,53.84,0,0,1-6.34-7.33c-8.57-24.82-13.2-51.57,6-51.57,17.17,0,16.48-41.46,31.47-41.46C89,54.81,92.51,79,99.67,79s10.66-24.19,24.14-24.19c15,0,14.3,41.46,31.47,41.46C174.47,96.27,169.85,123,161.27,147.84Zm12.65-74.63c-3.5-7.46-10.91-18.7-25.89-27.5,2.79-3.05,30.09-32.55,36.82-24.76h0a46.73,46.73,0,0,1,.44,6.86C185.29,43.47,177.86,63.62,173.92,73.21Z"/><polygon id="eye-l" points="89.26 110.39 89.26 122.64 78.22 122.64 78.22 133.69 65.96 133.69 65.96 122.64 54.92 122.64 54.92 110.39 65.96 110.39 65.96 99.35 78.22 99.35 78.22 110.39 89.26 110.39"/><g id="eye-r"><circle cx="113.28" cy="116.7" r="6.32"/><circle cx="138.09" cy="116.7" r="6.32"/><circle cx="125.47" cy="128.89" r="6.32"/><circle cx="125.84" cy="104.15" r="6.32"/></g><ellipse id="nose" cx="99.67" cy="175.44" rx="17.47" ry="13.94"/></g></g></g></g></g></svg>