<svg xmlns="http://www.w3.org/2000/svg" viewBox="0 0 765.33 310.34"><defs><style>.cls-1{fill:#fff;}</style></defs><title>HuskyGameDevelopment_Bottom_Bl</title><g id="Layer_2" data-name="Layer 2"><g id="Final-Husky_Game_Development" data-name="Final-Husky Game Development"><g id="black_copy" data-name="black copy"><g id="bl-bottom"><g id="text"><path class="cls-1" d="M26.31,268.76H10.46v24.57H0v-58.1H10.46v23.9H26.31v-23.9H36.77v58.1H26.31Z"/><path class="cls-1" d="M53.62,251.83v24.82q0,4.9.91,6.81a3.35,3.35,0,0,0,3.32,1.91,5.11,5.11,0,0,0,3.9-1.7A9.76,9.76,0,0,0,64,279.55V251.83h9.88v28.88q0,3.4.25,6.68a35.51,35.51,0,0,0,.91,5.93H67.56l-1.74-5.64h-.25a14,14,0,0,1-4.27,4.81,11.28,11.28,0,0,1-6.68,1.91A13.65,13.65,0,0,1,50,293.7a7.58,7.58,0,0,1-3.4-2.45,12.12,12.12,0,0,1-2.16-4.77,32.83,32.83,0,0,1-.75-7.68v-27Z"/><path class="cls-1" d="M95,282.29a4.16,4.16,0,0,0-1.12-2.95,12.92,12.92,0,0,0-2.86-2.24q-1.74-1-3.69-2.12a19.7,19.7,0,0,1-3.69-2.66,12.81,12.81,0,0,1-2.86-3.82,12.59,12.59,0,0,1-1.12-5.64q0-5.81,3.15-9t9.3-3.15a29.05,29.05,0,0,1,6.89.79,18.42,18.42,0,0,1,5.15,2l-2.32,7.64A32.21,32.21,0,0,0,98,259.83a16.43,16.43,0,0,0-4.4-.62q-4.07,0-4.07,3.4a3.41,3.41,0,0,0,1.12,2.61,15.59,15.59,0,0,0,2.86,2q1.74,1,3.69,2.08a18.84,18.84,0,0,1,3.69,2.7,12.41,12.41,0,0,1,4,9.67,12.45,12.45,0,0,1-3.49,9.21q-3.49,3.49-10.37,3.49a27.19,27.19,0,0,1-6.68-.83,17.06,17.06,0,0,1-5.27-2.16l2.74-8a21.71,21.71,0,0,0,4,1.74,15.27,15.27,0,0,0,4.77.75,5.37,5.37,0,0,0,3.15-.87A3.15,3.15,0,0,0,95,282.29Z"/><path class="cls-1" d="M122.34,276.14H120v17.18h-9.88v-58.1H120V269.5l2-1.16,6.89-16.52h10.71L132,268.26l-3.57,2.82,3.9,2.82,8.47,19.42H129.65Z"/><path class="cls-1" d="M159,275.15l1.08,6.47h.42l.75-6.56,4.81-23.24h10.13l-10.37,37.43q-1.41,4.9-2.66,8.8a43.57,43.57,0,0,1-2.66,6.64,13,13,0,0,1-3.2,4.19,6.57,6.57,0,0,1-4.27,1.45,19.11,19.11,0,0,1-3.36-.29,8.7,8.7,0,0,1-2.78-.95l1.66-8.39a5.53,5.53,0,0,0,2.2.37,3.4,3.4,0,0,0,2.08-.84,6.77,6.77,0,0,0,1.7-2.47,19.85,19.85,0,0,0,1.24-4.45l-14.44-41.5h11.87Z"/><path class="cls-1" d="M210.24,263.28h17.93V289A18.22,18.22,0,0,1,221,293.2a27.26,27.26,0,0,1-8.18,1.29,21.92,21.92,0,0,1-8.88-1.74,16.83,16.83,0,0,1-6.76-5.44,27.26,27.26,0,0,1-4.32-9.38,52.88,52.88,0,0,1-1.54-13.65,46.64,46.64,0,0,1,1.83-14,27.22,27.22,0,0,1,4.86-9.34,17.84,17.84,0,0,1,7.05-5.23,22.59,22.59,0,0,1,8.51-1.62,34.63,34.63,0,0,1,7.26.71,31,31,0,0,1,5.44,1.62l-2.16,9a20.47,20.47,0,0,0-3.86-1.25,24.71,24.71,0,0,0-5.35-.5,11.81,11.81,0,0,0-5.27,1.16,10,10,0,0,0-4,3.65,19.52,19.52,0,0,0-2.49,6.43,44.21,44.21,0,0,0-.87,9.42q0,10.54,3.2,15.52t8.42,5a10.19,10.19,0,0,0,3.2-.5,7.14,7.14,0,0,0,2.7-1.6v-12l-9.54-1.3Z"/><path class="cls-1" d="M234.22,254.32a22.51,22.51,0,0,1,6.22-2.41,35.78,35.78,0,0,1,8.47-.91q7.05,0,9.84,3.65T261.53,265q0,3.9-.21,7.68t-.29,7.39q-.08,3.61.13,7a27.38,27.38,0,0,0,1.12,6.35h-8.05l-1.58-5.06h-.33a11.18,11.18,0,0,1-3.73,4,10.85,10.85,0,0,1-6.06,1.58,9.64,9.64,0,0,1-7.72-3.28,13,13,0,0,1-2.82-8.76q0-7.47,5.31-10.62t14.36-2.66q.41-4.81-.62-7t-4.44-2.16a24.1,24.1,0,0,0-5.15.58,19,19,0,0,0-4.73,1.66Zm11.87,31.13a5.69,5.69,0,0,0,3.65-1.12,7.39,7.39,0,0,0,2.08-2.45V275a16.28,16.28,0,0,0-3.65-.08,10.06,10.06,0,0,0-3.07.75,5,5,0,0,0-2.12,1.7,4.85,4.85,0,0,0-.79,2.86,6.23,6.23,0,0,0,1,3.9A3.43,3.43,0,0,0,246.09,285.44Z"/><path class="cls-1" d="M287.59,293.33V269.17q0-5.23-.83-7.26a3.17,3.17,0,0,0-3.24-2,4.45,4.45,0,0,0-3.28,1.29,8.39,8.39,0,0,0-2,3.11v29h-9.88v-41.5h7.64l1.25,5h.25a14.6,14.6,0,0,1,3.94-4.27,10.51,10.51,0,0,1,6.27-1.7,9.06,9.06,0,0,1,5.27,1.41,9.36,9.36,0,0,1,3.2,5,12.45,12.45,0,0,1,4.15-4.69,10.74,10.74,0,0,1,6.06-1.7,13.87,13.87,0,0,1,4.69.71,6.41,6.41,0,0,1,3.15,2.45,12.58,12.58,0,0,1,1.78,4.77,42,42,0,0,1,.58,7.68v26.89h-9.88V268.09a19,19,0,0,0-.75-6.22,3.15,3.15,0,0,0-3.32-2,4.73,4.73,0,0,0-3.36,1.2,6.92,6.92,0,0,0-1.87,3.28v29Z"/><path class="cls-1" d="M351.5,290.25a15.92,15.92,0,0,1-5.64,3,24,24,0,0,1-7.47,1.16,17,17,0,0,1-7.43-1.49,13.07,13.07,0,0,1-5.1-4.32,19.55,19.55,0,0,1-2.95-6.85,39.88,39.88,0,0,1-1-9.17q0-11.21,4.44-16.56t12.33-5.35a17,17,0,0,1,5.15.79,11.29,11.29,0,0,1,4.44,2.66,13.53,13.53,0,0,1,3.15,5,22,22,0,0,1,1.2,7.84q0,1.83-.21,3.9t-.62,4.48H331.66q.17,5.15,2.16,7.89t6.39,2.74a13.65,13.65,0,0,0,4.86-.83,12.88,12.88,0,0,0,3.36-1.74Zm-12.95-31.12a5.21,5.21,0,0,0-4.73,2.53,15,15,0,0,0-1.83,7.1h11.45q.25-4.73-1-7.18A4.11,4.11,0,0,0,338.55,259.13Z"/><path class="cls-1" d="M376.15,235.23q1.49-.25,3.36-.37l3.82-.25q1.95-.12,3.78-.17t3.24,0a27.52,27.52,0,0,1,11.5,2.12,18.34,18.34,0,0,1,7.39,6,24.44,24.44,0,0,1,3.94,9.25,57.33,57.33,0,0,1,1.16,12,58.08,58.08,0,0,1-1.12,11.58,26.7,26.7,0,0,1-3.94,9.71,20.18,20.18,0,0,1-7.64,6.68,26.24,26.24,0,0,1-12.12,2.49q-1.08,0-2.91-.08t-3.82-.21L379,293.7q-1.83-.12-2.82-.29Zm15.27,8.8q-1.33,0-2.7,0a12.22,12.22,0,0,0-2.12.21v40a3.93,3.93,0,0,0,.87.12l1.33.08,1.33.08.87,0a10.21,10.21,0,0,0,6.14-1.74,11.85,11.85,0,0,0,3.78-4.65,23.36,23.36,0,0,0,1.91-6.68,56.06,56.06,0,0,0,.54-7.93,58.33,58.33,0,0,0-.46-7.39,20.59,20.59,0,0,0-1.74-6.27,10.71,10.71,0,0,0-3.65-4.32A10.59,10.59,0,0,0,391.42,244Z"/><path class="cls-1" d="M448.44,290.25a15.92,15.92,0,0,1-5.64,3,24,24,0,0,1-7.47,1.16,17,17,0,0,1-7.43-1.49,13.07,13.07,0,0,1-5.1-4.32,19.55,19.55,0,0,1-2.95-6.85,39.88,39.88,0,0,1-1-9.17q0-11.21,4.44-16.56t12.33-5.35a17,17,0,0,1,5.15.79,11.29,11.29,0,0,1,4.44,2.66,13.54,13.54,0,0,1,3.15,5,22,22,0,0,1,1.2,7.84q0,1.83-.21,3.9t-.62,4.48H428.6q.16,5.15,2.16,7.89t6.39,2.74a13.65,13.65,0,0,0,4.86-.83,12.89,12.89,0,0,0,3.36-1.74Zm-12.95-31.12a5.21,5.21,0,0,0-4.73,2.53,15,15,0,0,0-1.83,7.1h11.45q.25-4.73-1-7.18A4.11,4.11,0,0,0,435.49,259.13Z"/><path class="cls-1" d="M467.7,273.49l1,6.56H469l.91-6.64,5.15-21.58h10.62l-13.94,41.92h-6.64l-14.69-41.92H462Z"/><path class="cls-1" d="M515.75,290.25a15.92,15.92,0,0,1-5.64,3,24,24,0,0,1-7.47,1.16,17,17,0,0,1-7.43-1.49,13.07,13.07,0,0,1-5.1-4.32,19.55,19.55,0,0,1-2.95-6.85,39.88,39.88,0,0,1-1-9.17q0-11.21,4.44-16.56T503,250.66a17,17,0,0,1,5.15.79,11.29,11.29,0,0,1,4.44,2.66,13.53,13.53,0,0,1,3.15,5,22,22,0,0,1,1.2,7.84q0,1.83-.21,3.9t-.62,4.48H495.92q.17,5.15,2.16,7.89t6.39,2.74a13.65,13.65,0,0,0,4.86-.83,12.88,12.88,0,0,0,3.36-1.74ZM502.8,259.13a5.21,5.21,0,0,0-4.73,2.53,15,15,0,0,0-1.83,7.1H507.7q.25-4.73-1-7.18A4.11,4.11,0,0,0,502.8,259.13Z"/><path class="cls-1" d="M533.27,279.88a10.62,10.62,0,0,0,.58,4.15,2,2,0,0,0,1.91,1.25,7.4,7.4,0,0,0,1.54-.17,10.1,10.1,0,0,0,1.78-.58l.91,8a11.37,11.37,0,0,1-3.4,1.25,20.89,20.89,0,0,1-4.9.58q-4.15,0-6.22-2.08t-2.08-7.05v-50h9.88Z"/><path class="cls-1" d="M541.9,272.58q0-11,4.32-16.43t12-5.39q8.3,0,12.37,5.48t4.07,16.35q0,11.12-4.32,16.48t-12.12,5.35Q541.9,294.4,541.9,272.58Zm10.21,0a26,26,0,0,0,1.41,9.63,4.86,4.86,0,0,0,4.73,3.4,5,5,0,0,0,4.69-2.95q1.54-2.94,1.54-10.08,0-6.39-1.41-9.71a4.91,4.91,0,0,0-4.81-3.32,5,5,0,0,0-4.52,2.95Q552.11,265.44,552.11,272.58Z"/><path class="cls-1" d="M580.33,251.83h7.39l1,4.73H589a12.88,12.88,0,0,1,4.27-4.36,11.52,11.52,0,0,1,5.85-1.37q6.31,0,9.5,4.77t3.2,15.89q0,11.12-4,17.06a13,13,0,0,1-11.54,5.93,15.16,15.16,0,0,1-3.4-.33,9.25,9.25,0,0,1-2.66-1.08v16.85h-9.88ZM590.2,284a5.51,5.51,0,0,0,1.87,1.25,7.35,7.35,0,0,0,2.7.41,5.49,5.49,0,0,0,5.06-3.28q1.74-3.28,1.74-11.16,0-5.89-1.33-8.76a4.53,4.53,0,0,0-4.4-2.86q-4.15,0-5.64,4.9Z"/><path class="cls-1" d="M636.6,293.33V269.17q0-5.23-.83-7.26a3.17,3.17,0,0,0-3.24-2,4.45,4.45,0,0,0-3.28,1.29,8.39,8.39,0,0,0-2,3.11v29h-9.88v-41.5h7.64l1.25,5h.25a14.6,14.6,0,0,1,3.94-4.27,10.51,10.51,0,0,1,6.27-1.7,9.06,9.06,0,0,1,5.27,1.41,9.36,9.36,0,0,1,3.2,5,12.45,12.45,0,0,1,4.15-4.69,10.74,10.74,0,0,1,6.06-1.7,13.87,13.87,0,0,1,4.69.71,6.41,6.41,0,0,1,3.15,2.45,12.58,12.58,0,0,1,1.78,4.77,42,42,0,0,1,.58,7.68v26.89h-9.88V268.09a19,19,0,0,0-.75-6.22,3.15,3.15,0,0,0-3.32-2,4.73,4.73,0,0,0-3.36,1.2,6.92,6.92,0,0,0-1.87,3.28v29Z"/><path class="cls-1" d="M700.51,290.25a15.92,15.92,0,0,1-5.64,3,24,24,0,0,1-7.47,1.16,17,17,0,0,1-7.43-1.49,13.07,13.07,0,0,1-5.1-4.32,19.55,19.55,0,0,1-2.95-6.85,39.88,39.88,0,0,1-1-9.17q0-11.21,4.44-16.56t12.33-5.35a17,17,0,0,1,5.15.79,11.29,11.29,0,0,1,4.44,2.66,13.53,13.53,0,0,1,3.15,5,22,22,0,0,1,1.2,7.84q0,1.83-.21,3.9t-.62,4.48H680.67q.17,5.15,2.16,7.89t6.39,2.74a13.65,13.65,0,0,0,4.86-.83,12.88,12.88,0,0,0,3.36-1.74Zm-12.95-31.12a5.21,5.21,0,0,0-4.73,2.53,15,15,0,0,0-1.83,7.1h11.45q.25-4.73-1-7.18A4.11,4.11,0,0,0,687.56,259.13Z"/><path class="cls-1" d="M728.56,293.33V268.09q0-4.56-1.08-6.39a3.9,3.9,0,0,0-3.65-1.83,5.61,5.61,0,0,0-3.73,1.33,7.25,7.25,0,0,0-2.24,3.32v28.8H708v-41.5h7.88l1.16,4.81h.25a13.39,13.39,0,0,1,4.07-4.11,12,12,0,0,1,6.72-1.7,12.35,12.35,0,0,1,4.44.75,7.51,7.51,0,0,1,3.28,2.45,11.64,11.64,0,0,1,2,4.57,32,32,0,0,1,.66,7.1v27.64Z"/><path class="cls-1" d="M742,251.83h4.56V244l9.88-3.07v10.87h8.05v8.8h-8.05v18.09a12.9,12.9,0,0,0,.71,5.06,2.56,2.56,0,0,0,2.53,1.49,9.26,9.26,0,0,0,2.24-.25,14.45,14.45,0,0,0,2.16-.75l1.24,7.88a21.49,21.49,0,0,1-4.23,1.54,20.15,20.15,0,0,1-5.06.62q-4.73,0-7.1-2.74t-2.37-9.21V260.62H742Z"/></g><g id="face"><path id="white-bg" class="cls-1" d="M381,219.56c-10.57,0-19.91-3.71-25-9.93-6.59-8-15.69-23.88-19.71-31.1A62.75,62.75,0,0,1,316,165.29a70.8,70.8,0,0,1-15.92-23.39c-4.72-11-7.19-23.85-7.34-38.07a85.69,85.69,0,0,1,2.45-21.94c-3.66-8.41-13.84-33.67-13.84-54.07,0-12.13,2.8-20.15,8.55-24.5,7-5.3,15.51-2.92,19.15-1.9C317.13,3.68,328.76,9,347.83,30A121.75,121.75,0,0,1,381,24.5,121.76,121.76,0,0,1,414.27,30C433.34,9,445,3.68,453,1.43c3.67-1,12.19-3.41,19.18,1.89,5.75,4.35,8.55,12.36,8.55,24.49,0,20.4-10.18,45.66-13.84,54.07a86.14,86.14,0,0,1,2.46,21.94c-.16,14.23-2.64,27-7.36,38.07a70.81,70.81,0,0,1-15.92,23.39,62.74,62.74,0,0,1-20.3,13.24c-4,7.22-13.12,23.06-19.72,31.1C401,215.84,391.62,219.56,381,219.56Z"/><path id="black-head" d="M461.83,81.49l.34-.77c3.23-7.32,13.76-32.77,13.76-52.9,0-10.53-2.18-17.3-6.65-20.68-5.11-3.87-11.53-2.08-15-1.11-7.56,2.13-18.64,7.26-37.51,28.31l-1,1.17L414.25,35A116.3,116.3,0,0,0,381,29.28,116.3,116.3,0,0,0,347.84,35l-1.49.5-1-1.17C326.44,13.28,315.36,8.15,307.82,6a27.64,27.64,0,0,0-7.44-1.27,12.2,12.2,0,0,0-7.56,2.37c-4.48,3.39-6.66,10.15-6.66,20.68,0,20.13,10.53,45.58,13.76,52.9l.34.77-.21.81a80.45,80.45,0,0,0-2.5,21.48c.15,13.59,2.49,25.78,7,36.25a66.07,66.07,0,0,0,14.85,21.83,57.41,57.41,0,0,0,19.48,12.52l.83.31.43.77c2.9,5.22,12.89,22.89,19.66,31.16,4.12,5,12.28,8.18,21.29,8.18s17.17-3.13,21.29-8.17c6.78-8.27,16.76-25.94,19.66-31.16l.43-.77.83-.31a57.4,57.4,0,0,0,19.48-12.52A66.07,66.07,0,0,0,457.58,140c4.47-10.45,6.81-22.65,7-36.24A80.85,80.85,0,0,0,462,82.29ZM295.43,27.81a46.71,46.71,0,0,1,.44-6.86h0c6.73-7.79,34,21.7,36.82,24.76-15,8.79-22.38,20-25.89,27.5C302.86,63.62,295.43,43.47,295.43,27.81Zm147.22,120a53.16,53.16,0,0,1-6.34,7.33,52.48,52.48,0,0,1-20.13,11.61s-13.58,24.88-21,33.95c-2.3,2.82-7.93,4.43-14.12,4.43s-11.82-1.61-14.12-4.43c-7.43-9.07-21-33.95-21-33.95a52.48,52.48,0,0,1-20.13-11.61,53.84,53.84,0,0,1-6.34-7.33c-8.57-24.82-13.2-51.57,6-51.57,17.17,0,16.48-41.46,31.47-41.46C370.4,54.81,373.89,79,381,79s10.66-24.19,24.14-24.19c15,0,14.3,41.46,31.47,41.46C455.85,96.27,451.23,123,442.65,147.84ZM455.3,73.21c-3.5-7.46-10.91-18.7-25.89-27.5C432.2,42.66,459.5,13.16,466.23,21h0a46.73,46.73,0,0,1,.44,6.86C466.67,43.47,459.24,63.62,455.3,73.21Z"/><polygon id="eye-l" points="370.64 110.39 370.64 122.64 359.6 122.64 359.6 133.69 347.34 133.69 347.34 122.64 336.3 122.64 336.3 110.39 347.34 110.39 347.34 99.35 359.6 99.35 359.6 110.39 370.64 110.39"/><g id="eye-r"><circle cx="394.66" cy="116.7" r="6.32"/><circle cx="419.47" cy="116.7" r="6.32"/><circle cx="406.85" cy="128.89" r="6.32"/><circle cx="407.22" cy="104.15" r="6.32"/></g><ellipse id="nose" cx="381.05" cy="175.44" rx="17.47" ry="13.94"/></g></g></g></g></g></svg>